    <svg xmlns="http://www.w3.org/2000/svg" width="32" height="32" viewBox="0 0 32 32" fill="none">
  <g clip-path="url(#clip0_84_151)">
    <path d="M3.79814 0H28.2019C29.2092 0 30.1753 0.40016 30.8875 1.11245C31.5998 1.82474 32 2.79081 32 3.79814V28.2019C32 29.209 31.5999 30.175 30.8877 30.8872C30.1755 31.5993 29.2096 31.9994 28.2024 31.9994H3.79758C2.7904 31.9994 1.82447 31.5993 1.11228 30.8872C0.400101 30.175 0 29.209 0 28.2019V3.79814C0 2.79081 0.40016 1.82474 1.11245 1.11245C1.82474 0.40016 2.79081 0 3.79814 0Z" fill="url(#paint0_linear_84_151)"/>
    <path fill-rule="evenodd" clip-rule="evenodd" d="M19.422 17.0304C20.0914 16.357 20.867 15.849 21.8576 16.0528C22.2188 16.1267 22.6088 16.2955 23.0327 16.5851C25.1957 18.0645 28.6885 20.5712 28.7432 20.6101C27.6318 18.0238 26.6593 16.011 25.7996 14.4701C23.1039 10.2215 19.4655 16.9503 19.422 17.0304Z" fill="url(#paint1_linear_84_151)"/>
    <path fill-rule="evenodd" clip-rule="evenodd" d="M16.1239 15.6831C16.515 15.4821 16.8735 15.1717 17.2087 14.7975L17.2155 14.7884C17.3239 14.6671 17.4306 14.5384 17.535 14.4057L17.5389 14.3995C19.8114 11.4966 21.1852 6.20211 25.7984 14.4712C23.101 10.2226 19.4626 16.9514 19.4202 17.0315C18.4449 18.0103 17.6942 19.3401 16.8294 19.3401C15.6593 19.3401 13.1701 17.2821 11.0597 16.3034C13.3852 16.913 15.0593 16.3514 16.1239 15.6831Z" fill="url(#paint2_linear_84_151)"/>
    <path fill-rule="evenodd" clip-rule="evenodd" d="M3.49951 20.1777C5.04439 19.7414 7.21299 15.9737 9.06888 15.8044C9.64009 15.7513 10.3293 15.9613 11.0631 16.3028C13.3852 16.9135 15.0593 16.3519 16.1239 15.6819C15.4465 16.0291 14.671 16.0522 13.7329 15.5165C13.1752 15.1988 12.5605 14.6829 11.8759 13.9209C8.3097 10.6877 5.00037 17.5316 3.49951 20.1777Z" fill="url(#paint3_linear_84_151)"/>
  </g>
  <defs>
    <linearGradient id="paint0_linear_84_151" x1="0" y1="15.9997" x2="32" y2="15.9997" gradientUnits="userSpaceOnUse">
      <stop stop-color="#00B1EB"/>
      <stop offset="1" stop-color="#5A328A"/>
    </linearGradient>
    <linearGradient id="paint1_linear_84_151" x1="27.9908" y1="17.1145" x2="20.4815" y2="15.8614" gradientUnits="userSpaceOnUse">
      <stop stop-color="white"/>
      <stop offset="1" stop-color="#B2B2B2"/>
    </linearGradient>
    <linearGradient id="paint2_linear_84_151" x1="22.1662" y1="13.2441" x2="14.7026" y2="16.7956" gradientUnits="userSpaceOnUse">
      <stop stop-color="white"/>
      <stop offset="1" stop-color="#C6C6C6"/>
    </linearGradient>
    <linearGradient id="paint3_linear_84_151" x1="15.6915" y1="16.5551" x2="6.26472" y2="16.6279" gradientUnits="userSpaceOnUse">
      <stop stop-color="white"/>
      <stop offset="0.45" stop-color="#E8E8E8"/>
      <stop offset="1" stop-color="#C6C6C6"/>
    </linearGradient>
    <clipPath id="clip0_84_151">
      <rect width="32" height="32" fill="white"/>
    </clipPath>
  </defs>
</svg>
