<svg width="101" height="100" viewBox="0 0 101 100" fill="none" xmlns="http://www.w3.org/2000/svg">
<path d="M34.0783 47.9941C26.2289 47.9941 19.8623 41.6291 19.8623 33.7785C19.8623 25.9275 26.2289 19.5624 34.0783 19.5624C41.9303 19.5624 48.2943 25.9275 48.2943 33.7785C48.2943 41.6291 41.9303 47.9941 34.0783 47.9941ZM34.0783 12.3077C22.2396 12.3077 12.6076 21.9384 12.6076 33.7785C12.6076 45.6181 22.2396 55.2488 34.0783 55.2488C45.9183 55.2488 55.5503 45.6181 55.5503 33.7785C55.5503 21.9384 45.9183 12.3077 34.0783 12.3077Z" fill="#9C9C9B"/>
<path d="M34.0783 58.2223C20.5996 58.2223 9.63563 47.2572 9.63563 33.7785C9.63563 20.3009 20.5996 9.33428 34.0783 9.33428C47.5583 9.33428 58.5236 20.3009 58.5236 33.7785C58.5236 47.2572 47.5583 58.2223 34.0783 58.2223ZM64.4236 33.7785C64.4236 33.0264 64.3663 32.2905 64.313 31.5545C65.1263 30.9384 65.9063 30.2744 66.4396 29.7531C66.9876 29.2212 67.357 28.8651 67.357 28.8651C67.357 28.8651 67.1023 26.8051 66.5116 24.8145C66.289 23.8009 65.8996 22.837 65.6356 22.1078C65.365 21.3786 65.1863 20.8916 65.1863 20.8916L62.113 22.1692C61.8263 21.4769 61.4983 20.8155 61.165 20.1531C61.6743 19.2744 62.149 18.3572 62.441 17.6703C62.7423 16.9665 62.9463 16.4984 62.9463 16.4984C62.9436 16.4984 61.909 14.6984 60.6103 13.0837C60.0196 12.2301 59.2716 11.5093 58.761 10.9223C58.2396 10.3515 57.889 9.96761 57.889 9.96761L55.537 12.3212C55.0116 11.7984 54.4543 11.3103 53.889 10.8249C54.037 9.80361 54.0916 8.81028 54.1156 8.05308C54.1276 7.28481 54.1343 6.76922 54.1343 6.76922C54.1343 6.76922 53.7196 6.46241 53.0996 5.99575C52.4596 5.55828 51.557 5.04268 50.6783 4.49842C49.8023 3.94882 48.8303 3.56761 48.1436 3.20935C47.4463 2.86508 46.965 2.67028 46.965 2.67028L45.6903 5.74628C45.0116 5.46242 44.3076 5.21188 43.6023 4.97695C43.3463 3.97695 43.0103 3.06348 42.7423 2.34108C42.4583 1.62495 42.269 1.14521 42.269 1.14521C42.269 1.14521 41.769 1.01708 41.0156 0.827478C40.2556 0.681211 39.225 0.539477 38.2036 0.378544C37.181 0.195744 36.1436 0.233217 35.3703 0.165084C34.5943 0.129084 34.0783 0.105082 34.0783 0.105082V3.43322C33.3263 3.43322 32.5916 3.49055 31.8543 3.54628C31.2396 2.73015 30.5756 1.95148 30.0543 1.41548C29.521 0.865083 29.1663 0.499882 29.1663 0.499882C29.1663 0.499882 27.1076 0.753077 25.1156 1.34521C24.101 1.56921 23.1383 1.96241 22.409 2.22388C21.6796 2.49161 21.193 2.67028 21.193 2.67028L22.4663 5.74628C21.7796 6.03015 21.1156 6.35828 20.4543 6.69308C19.5756 6.18214 18.657 5.70934 17.9716 5.41708C17.2663 5.11454 16.7983 4.91295 16.7983 4.91295C16.7983 4.91548 15.001 5.94788 13.3863 7.24788C12.5316 7.83695 11.8103 8.58641 11.2236 9.09414C10.6516 9.61814 10.269 9.96761 10.269 9.96761L12.6223 12.3212C12.0983 12.8479 11.6116 13.4036 11.125 13.9692C10.105 13.8212 9.11297 13.7665 8.35297 13.7436C7.5863 13.7301 7.0703 13.7223 7.0703 13.7223C7.0703 13.7223 6.76364 14.1369 6.29698 14.7583C5.85964 15.3968 5.34365 16.3009 4.79965 17.1785C4.24898 18.0556 3.86764 19.0275 3.51164 19.7145C3.16764 20.4129 2.97163 20.8916 2.97163 20.8916L6.04497 22.1692C5.76231 22.8479 5.51164 23.5479 5.27964 24.2556C4.27964 24.5103 3.36497 24.8479 2.64097 25.1171C1.92497 25.3999 1.44631 25.5879 1.44631 25.5879C1.44631 25.5879 1.31831 26.0889 1.12764 26.8427C0.980974 27.6036 0.842309 28.6332 0.679643 29.6545C0.496976 30.6769 0.532979 31.7145 0.466313 32.4879C0.430313 33.2624 0.404968 33.7785 0.404968 33.7785H3.73431C3.73431 34.5301 3.79164 35.2665 3.84631 36.0036C3.03164 36.6181 2.25297 37.2821 1.71963 37.8025C1.1703 38.3369 0.799646 38.6916 0.799646 38.6916C0.799646 38.6916 1.05831 40.7504 1.64631 42.7427C1.87031 43.7556 2.26097 44.7197 2.52364 45.4488C2.79164 46.1785 2.97163 46.6651 2.97163 46.6651L6.04497 45.3889C6.33164 46.0785 6.65964 46.7427 6.99431 47.4051C6.48231 48.2821 6.0103 49.1999 5.71963 49.8864C5.4143 50.5916 5.21431 51.0583 5.21431 51.0583C5.21698 51.0583 6.24765 52.8572 7.55031 54.4717C8.13831 55.3264 8.88764 56.0479 9.39698 56.6343C9.91831 57.2051 10.269 57.5889 10.269 57.5889L12.6223 55.2359C13.1463 55.7583 13.7036 56.2479 14.2703 56.7332C14.1223 57.7531 14.0676 58.7463 14.0436 59.5051C14.0316 60.2717 14.0236 60.7879 14.0236 60.7879C14.0236 60.7879 14.4383 61.0957 15.061 61.5608C15.6983 61.9984 16.6023 62.5145 17.4796 63.0583C18.3556 63.6077 19.329 63.9905 20.0156 64.3479C20.713 64.6916 21.193 64.8864 21.193 64.8864L22.4663 61.8119C23.149 62.0941 23.849 62.3452 24.557 62.5796C24.8103 63.5785 25.1463 64.4931 25.4156 65.2171C25.701 65.9332 25.889 66.4129 25.889 66.4129C25.889 66.4129 26.389 66.5395 27.1436 66.7301C27.9036 66.876 28.933 67.0171 29.957 67.1785C30.977 67.3597 32.0156 67.3239 32.789 67.3916C33.5636 67.4275 34.0783 67.4515 34.0783 67.4515V64.1239C34.8316 64.1239 35.5676 64.0665 36.3023 64.0119C36.9183 64.8264 37.5836 65.6051 38.105 66.1436C38.6383 66.6905 38.993 67.0583 38.993 67.0583C38.993 67.0583 41.053 66.8009 43.0423 66.2119C44.0583 65.9879 45.0196 65.5973 45.7503 65.3343C46.4796 65.0665 46.965 64.8864 46.965 64.8864L45.6903 61.8119C46.3796 61.5264 47.0423 61.1984 47.705 60.8651C48.5823 61.376 49.501 61.8479 50.1863 62.1395C50.893 62.4421 51.3596 62.6436 51.3596 62.6436C51.3596 62.6411 53.1596 61.6088 54.7743 60.3077C55.6276 59.7197 56.3476 58.9703 56.9356 58.4651C57.5063 57.9384 57.889 57.5889 57.889 57.5889L55.537 55.2359C56.061 54.7119 56.5476 54.1545 57.033 53.5864C58.053 53.7359 59.0463 53.7905 59.805 53.8129C60.573 53.8264 61.089 53.8343 61.089 53.8343C61.089 53.8343 61.397 53.4181 61.8623 52.7984C62.2996 52.1597 62.8156 51.2556 63.3583 50.3785C63.909 49.5009 64.289 48.5291 64.6476 47.8427C64.993 47.1436 65.1863 46.6651 65.1863 46.6651L62.113 45.3889C62.397 44.7093 62.6463 44.0077 62.8796 43.3009C63.881 43.0463 64.7943 42.7093 65.517 42.4411C66.2316 42.1572 66.713 41.9676 66.713 41.9676C66.713 41.9676 66.841 41.4692 67.029 40.7145C67.1783 39.9545 67.317 38.9239 67.4796 37.9025C67.6623 36.8812 67.625 35.8436 67.6916 35.0692C67.729 34.2941 67.753 33.7785 67.753 33.7785H64.4236Z" fill="#9C9C9B"/>
<path d="M34.081 47.9941C26.233 47.9941 19.8556 41.6332 19.8556 33.7821C19.8556 25.9359 26.233 19.5583 34.081 19.5583C41.9303 19.5583 48.2916 25.9359 48.2916 33.7821C48.2916 41.6332 41.9303 47.9941 34.081 47.9941ZM34.081 12.3051C22.2343 12.3051 12.6023 21.9359 12.6023 33.7821C12.6023 45.6155 22.2343 55.2479 34.081 55.2479C45.9143 55.2479 55.545 45.6155 55.545 33.7821C55.545 21.9359 45.9143 12.3051 34.081 12.3051Z" fill="#9C9C9B"/>
<path d="M34.081 58.2223C20.5997 58.2223 9.62899 47.2504 9.62899 33.7821C9.62899 20.3025 20.5997 9.33175 34.081 9.33175C47.5663 9.33175 58.5183 20.3025 58.5183 33.7821C58.5183 47.2504 47.5663 58.2223 34.081 58.2223ZM64.4223 33.7821C64.4223 33.0249 64.3623 32.2957 64.317 31.5531C65.1197 30.9452 65.9063 30.276 66.4423 29.7531C66.993 29.2212 67.3637 28.8624 67.3637 28.8624C67.3637 28.8624 67.097 26.8103 66.5183 24.8212C66.2943 23.7941 65.893 22.8436 65.6383 22.1155C65.3716 21.3717 65.1797 20.8941 65.1797 20.8941L62.1183 22.176C61.8343 21.476 61.493 20.8212 61.165 20.1515C61.6717 19.2744 62.1463 18.3531 62.445 17.6703C62.7423 16.9717 62.9503 16.4957 62.9503 16.4957C62.9503 16.4957 61.909 14.6957 60.6157 13.0769C60.021 12.2291 59.2783 11.5171 58.7556 10.9197C58.237 10.3572 57.8957 9.96922 57.8957 9.96922L55.5317 12.3182C55.0117 11.7984 54.461 11.3077 53.8837 10.8317C54.0303 9.80508 54.0903 8.81028 54.121 8.05308C54.1343 7.27961 54.1343 6.77442 54.1343 6.77442C54.1343 6.77442 53.7196 6.46241 53.0943 6.00095C52.457 5.55561 51.5637 5.04788 50.685 4.50095C49.809 3.95148 48.8276 3.56348 48.1436 3.20615C47.4463 2.86348 46.969 2.67028 46.969 2.67028L45.6903 5.74882C45.0076 5.46655 44.3077 5.21188 43.5943 4.97442C43.341 3.97855 43.0157 3.05828 42.7477 2.34521C42.4517 1.63174 42.2716 1.13948 42.2716 1.13948C42.2716 1.13948 41.7663 1.02228 41.0103 0.827478C40.2503 0.681211 39.225 0.546282 38.1997 0.382149C37.1877 0.188949 36.1476 0.235879 35.3756 0.159745C34.5876 0.129079 34.081 0.100948 34.081 0.100948V3.42908C33.325 3.42908 32.5957 3.48895 31.8517 3.54788C31.2423 2.73015 30.573 1.95975 30.0543 1.41028C29.5183 0.872816 29.161 0.500948 29.161 0.500948C29.161 0.500948 27.1103 0.753078 25.1183 1.35041C24.1077 1.57174 23.141 1.95975 22.4117 2.22495C21.685 2.49308 21.1943 2.67028 21.1943 2.67028L22.4716 5.74882C21.7743 6.03015 21.121 6.35828 20.4517 6.69988C19.5743 6.17961 18.653 5.70361 17.969 5.42121C17.2703 5.10774 16.7943 4.91548 16.7943 4.91548C16.7943 4.91548 14.997 5.94108 13.3916 7.24882C12.529 7.84522 11.813 8.58641 11.221 9.09161C10.657 9.61295 10.269 9.96922 10.269 9.96922L12.617 12.3182C12.097 12.8384 11.6063 13.4036 11.1303 13.9676C10.105 13.8197 9.11032 13.7608 8.35033 13.7452C7.57833 13.7317 7.07298 13.7155 7.07298 13.7155C7.07298 13.7155 6.76099 14.1317 6.29832 14.7556C5.85299 15.3968 5.34766 16.3036 4.79832 17.1785C4.24766 18.0556 3.86231 19.0223 3.50631 19.7197C3.16498 20.4051 2.97031 20.8941 2.97031 20.8941L6.04766 22.176C5.76632 22.8436 5.51165 23.5427 5.27432 24.2556C4.27965 24.5093 3.37165 24.8504 2.64232 25.1171C1.93032 25.3999 1.45431 25.5916 1.45431 25.5916C1.45431 25.5916 1.32099 26.0837 1.12765 26.8411C0.976986 27.5999 0.843658 28.6264 0.682324 29.6515C0.503658 30.6769 0.531647 31.7171 0.471647 32.4905C0.42898 33.2624 0.399658 33.7821 0.399658 33.7821H3.73032C3.73032 34.5264 3.78632 35.2692 3.84632 35.9984C3.03032 36.6239 2.25698 37.2769 1.72098 37.7973C1.17298 38.3317 0.799658 38.6905 0.799658 38.6905C0.799658 38.6905 1.05299 40.7545 1.64632 42.7479C1.87032 43.7556 2.25698 44.7239 2.52365 45.4531C2.79165 46.1812 2.97031 46.6703 2.97031 46.6703L6.04766 45.3931C6.32899 46.0769 6.65699 46.7463 7.00099 47.3999C6.47833 48.2755 6.01698 49.1984 5.71964 49.8812C5.40764 50.5957 5.21432 51.0556 5.21432 51.0556C5.21432 51.0556 6.25566 52.8556 7.54766 54.4744C8.14366 55.3212 8.88632 56.0504 9.39165 56.6307C9.91165 57.2119 10.269 57.5821 10.269 57.5821L12.617 55.2343C13.1517 55.7531 13.7037 56.2452 14.2677 56.7343C14.1183 57.7463 14.073 58.7411 14.0437 59.4999C14.029 60.2717 14.029 60.7931 14.029 60.7931C14.029 60.7931 14.4463 61.0889 15.0556 61.5665C15.693 61.9968 16.6023 62.5171 17.4783 63.0515C18.3543 63.6025 19.337 63.9879 20.0196 64.3452C20.7196 64.6864 21.1943 64.8796 21.1943 64.8796L22.4716 61.8181C23.141 62.1009 23.8556 62.3384 24.553 62.5769C24.8063 63.5717 25.149 64.4931 25.4157 65.2223C25.6983 65.9369 25.893 66.4129 25.893 66.4129C25.893 66.4129 26.397 66.5452 27.141 66.7239C27.8983 66.8728 28.9397 67.0223 29.9503 67.1864C30.977 67.3624 32.0156 67.3181 32.789 67.3916C33.561 67.4223 34.081 67.4515 34.081 67.4515V64.1223C34.8263 64.1223 35.5677 64.0624 36.297 64.0197C36.921 64.8212 37.5903 65.6088 38.1103 66.1436C38.629 66.6931 38.9876 67.0515 38.9876 67.0515C38.9876 67.0515 41.053 66.7984 43.0477 66.2181C44.057 65.9796 45.0237 65.5931 45.7503 65.3427C46.4797 65.0583 46.969 64.8796 46.969 64.8796L45.6903 61.8181C46.3756 61.5212 47.0437 61.1931 47.6983 60.8676C48.589 61.3728 49.4983 61.8488 50.1797 62.1436C50.8943 62.4421 51.3543 62.6488 51.3543 62.6488C51.3543 62.6369 53.1543 61.6103 54.7743 60.3025C55.621 59.7223 56.3477 58.9651 56.9303 58.4597C57.509 57.9384 57.8957 57.5821 57.8957 57.5821L55.5317 55.2343C56.0677 54.7119 56.5423 54.1479 57.033 53.5821C58.0597 53.7301 59.0397 53.7905 59.7983 53.8212C60.5717 53.8212 61.0916 53.8369 61.0916 53.8369C61.0916 53.8369 61.4037 53.4181 61.8623 52.7957C62.2943 52.1556 62.8157 51.2488 63.365 50.3717C63.917 49.4957 64.2863 48.5291 64.6436 47.8452C64.9863 47.1463 65.1797 46.6703 65.1797 46.6703L62.1183 45.3931C62.3983 44.7093 62.6516 44.0119 62.8756 43.2973C63.8863 43.0452 64.7916 42.7009 65.521 42.4359C66.2343 42.1515 66.7103 41.9744 66.7103 41.9744C66.7103 41.9744 66.8436 41.4692 67.037 40.7093C67.1703 39.9515 67.321 38.9264 67.4823 37.9025C67.6623 36.8744 67.633 35.8504 67.6916 35.0608C67.7223 34.2905 67.7503 33.7821 67.7503 33.7821H64.4223Z" fill="#9C9C9B"/>
<path d="M34.081 55.2479V47.9941C41.9303 47.9941 48.2917 41.6332 48.2917 33.7821C48.2917 25.9359 41.9303 19.5583 34.081 19.5583V12.3051C45.285 12.3051 54.5143 20.9384 55.4637 31.9129C54.637 32.1343 53.8503 32.5009 53.1036 32.9692C52.2823 33.4384 51.5677 34.0769 50.9277 34.7931C51.5823 34.6436 52.209 34.5717 52.7997 34.5717C52.873 34.5717 52.945 34.5728 53.0157 34.576C53.689 34.6103 54.3316 34.7384 54.9196 34.9223C55.1196 34.9848 55.313 35.0556 55.5023 35.1317C55.405 36.7009 55.1383 38.2239 54.7196 39.6848C54.2356 39.5889 53.7383 39.5369 53.2277 39.5369C52.8063 39.5369 52.377 39.5728 51.941 39.6463C50.4037 39.9291 48.769 40.6717 47.481 41.9155C46.7917 42.5171 46.2357 43.2504 45.7597 44.0597C45.2477 44.8583 44.9103 45.7572 44.6797 46.6931C45.2517 46.1999 45.8383 45.8129 46.4277 45.5249C47.0397 45.2411 47.669 45.0556 48.2757 44.9436C48.7557 44.8572 49.2303 44.8181 49.6943 44.8181C50.4103 44.8181 51.1036 44.9103 51.769 45.0665L52.0343 45.1515C51.9117 45.4479 51.7957 45.7463 51.685 46.0488C47.801 51.6061 41.3583 55.2479 34.081 55.2479Z" fill="#AAA9A8"/>
<path d="M38.9877 67.0515C38.9877 67.0515 38.629 66.6931 38.1103 66.1436C37.5903 65.6088 36.921 64.8212 36.297 64.0197C35.5677 64.0624 34.8263 64.1223 34.081 64.1223V58.2223C37.8423 58.2223 41.405 57.3692 44.589 55.8463C44.4863 56.3155 44.421 56.7984 44.4143 57.2879C44.3743 58.2239 44.4117 59.1916 44.6797 60.1182C45.1823 58.725 46.1023 57.6598 47.0557 56.9051C48.0237 56.1436 49.0943 55.6786 50.2103 55.3942L50.4876 55.3452C50.613 56.7463 50.8757 58.1062 51.2557 59.4171C51.001 59.6343 50.7477 59.8624 50.517 60.1155C50.0877 60.6036 49.7103 61.1583 49.3943 61.7755C48.8663 61.5145 48.2797 61.1968 47.6997 60.8692C47.6983 60.8692 47.6983 60.8676 47.6983 60.8676C47.1663 61.1332 46.6263 61.3984 46.0743 61.6479C45.9477 61.7051 45.8197 61.7624 45.6903 61.8182L46.969 64.8796C46.969 64.8796 46.4797 65.0583 45.7503 65.3427C45.0237 65.5931 44.057 65.9796 43.0477 66.2181C41.053 66.7984 38.9877 67.0515 38.9877 67.0515Z" fill="#AAA9A8"/>
<path d="M63.741 49.7181C63.8503 49.4692 63.9703 49.2249 64.101 48.9879C63.989 49.2264 63.8703 49.4717 63.741 49.7181Z" fill="#AAA9A8"/>
<path d="M63.4623 33.5941C62.6757 32.8676 61.7316 32.2889 60.6196 31.9306C59.937 31.7181 59.1903 31.5821 58.417 31.5462C57.2863 19.1093 46.8117 9.33172 34.081 9.33172V0.100918C34.081 0.100918 34.5877 0.129048 35.3757 0.159715C36.1477 0.235848 37.1877 0.188919 38.1997 0.382119C39.225 0.546252 40.2503 0.681181 41.0103 0.827447C41.7663 1.02225 42.2717 1.13945 42.2717 1.13945C42.2717 1.13945 42.4517 1.63171 42.7477 2.34518C43.0157 3.05825 43.341 3.97852 43.5943 4.97439C44.3077 5.21185 45.0077 5.46652 45.6903 5.74879L46.969 2.67025C46.969 2.67025 47.4463 2.86345 48.1437 3.20612C48.8277 3.56345 49.809 3.95145 50.685 4.50092C51.5637 5.04785 52.457 5.55558 53.0943 6.00092C53.7197 6.46238 54.1343 6.77439 54.1343 6.77439C54.1343 6.77439 54.1343 7.27958 54.121 8.05305C54.0903 8.81025 54.0303 9.80505 53.8837 10.8317C54.461 11.3077 55.0117 11.7984 55.5317 12.3181L57.8957 9.96919C57.8957 9.96919 58.237 10.3572 58.7557 10.9197C59.2783 11.517 60.021 12.2291 60.6157 13.0769C61.909 14.6957 62.9503 16.4957 62.9503 16.4957C62.9503 16.4957 62.7423 16.9717 62.445 17.6703C62.1463 18.3531 61.6717 19.2744 61.165 20.1515C61.493 20.8212 61.8343 21.476 62.1183 22.176L65.1797 20.8941C65.1797 20.8941 65.3716 21.3717 65.6383 22.1155C65.893 22.8436 66.2943 23.7941 66.5183 24.8212C66.6997 25.4436 66.8503 26.0717 66.9716 26.6411C66.505 26.5597 66.029 26.5249 65.5463 26.5249C65.2863 26.5249 65.025 26.5358 64.761 26.553C63.813 26.5837 62.881 26.8212 61.9797 27.1608C62.7117 27.3504 63.3597 27.6145 63.9343 27.9342C64.513 28.2796 65.0237 28.6916 65.4583 29.1274C65.7317 29.4009 65.977 29.6889 66.1983 29.9864C65.6823 30.4665 65.005 31.0317 64.317 31.553C64.3517 32.1093 64.393 32.6572 64.4117 33.2155C64.0917 33.3343 63.7757 33.4608 63.4623 33.5941Z" fill="#AAA9A8"/>
<path d="M72.2116 62.6905C67.105 62.6905 62.961 58.5479 62.961 53.4384C62.961 48.3291 67.105 44.1879 72.2116 44.1879C77.321 44.1879 81.465 48.3291 81.465 53.4384C81.465 58.5479 77.321 62.6905 72.2116 62.6905ZM96.953 55.9572C95.8023 56.4624 94.621 56.6597 93.489 56.6728L93.209 56.6545C93.3716 55.5916 93.4796 54.5129 93.4796 53.4061C93.4796 53.1077 93.449 52.8155 93.4356 52.5181C94.401 52.0317 95.3076 51.3452 96.017 50.4463C98.0836 48.0145 98.6223 43.7999 96.797 40.3515C96.3943 43.3572 94.521 45.2197 92.5476 46.2796L92.289 46.3941C91.8356 45.0717 91.2596 43.8129 90.569 42.6239C91.1903 41.7488 91.6623 40.7223 91.8863 39.5864C92.5596 36.4821 91.105 32.5051 87.8917 30.2999C88.9197 33.1515 88.129 35.6597 86.8703 37.5223L86.6956 37.7411C85.6903 36.7931 84.597 35.9436 83.4237 35.1999C83.5743 34.1395 83.517 33.0291 83.1823 31.8999C82.3463 28.8264 79.185 25.9821 75.3116 25.5343C77.5583 27.5665 78.0263 30.1703 77.7796 32.3957L77.7276 32.6703C76.4116 32.3036 75.0503 32.0572 73.6476 31.9463C73.2823 30.9427 72.7036 29.9848 71.8983 29.1275C70.7916 28.0488 69.261 27.1025 67.501 26.7556C66.6183 26.5264 65.6983 26.4889 64.761 26.5531C63.813 26.5837 62.881 26.8212 61.9796 27.1608C62.7116 27.3504 63.3596 27.6145 63.9343 27.9343C64.513 28.2796 65.0236 28.6916 65.4583 29.1275C66.3356 30.0093 66.933 31.0275 67.3423 32.0744L67.4236 32.3427C66.0516 32.6343 64.7276 33.0531 63.4623 33.5941C62.6756 32.8676 61.7316 32.2889 60.6196 31.9307C59.1263 31.4676 57.3316 31.3676 55.6183 31.8728C54.733 32.0889 53.8956 32.4717 53.1036 32.9692C52.2823 33.4384 51.5676 34.0769 50.9276 34.7931C51.6636 34.6249 52.3623 34.5556 53.0156 34.576C53.689 34.6103 54.3316 34.7384 54.9196 34.9223C56.1023 35.2941 57.105 35.9171 57.9556 36.6531L58.1516 36.8531C57.0863 37.7384 56.1103 38.7275 55.233 39.8051C54.1983 39.5264 53.093 39.4504 51.941 39.6463C50.4036 39.9291 48.769 40.6717 47.481 41.9155C46.7916 42.5171 46.2356 43.2504 45.7596 44.0597C45.2476 44.8583 44.9103 45.7572 44.6796 46.6931C45.2516 46.1999 45.8383 45.8129 46.4276 45.5249C47.0396 45.2411 47.669 45.0556 48.2756 44.9436C49.4956 44.7239 50.673 44.8093 51.769 45.0665L52.0343 45.1515C51.509 46.4197 51.0943 47.7479 50.8183 49.1239C49.7743 49.3597 48.7636 49.8077 47.841 50.5197C47.1703 51.0009 46.665 51.5999 46.149 52.2864C45.8996 52.6291 45.6676 52.9931 45.449 53.3812C45.261 53.7665 45.097 54.1728 44.9503 54.5973C44.653 55.4411 44.4276 56.3531 44.4143 57.2879C44.3743 58.2239 44.4116 59.1916 44.6796 60.1181C45.1823 58.7249 46.1023 57.6597 47.0556 56.9051C48.0236 56.1436 49.0943 55.6785 50.2103 55.3941L50.4876 55.3452C50.613 56.7463 50.8756 58.1061 51.2556 59.4171C51.001 59.6343 50.7476 59.8624 50.517 60.1155C50.0263 60.6728 49.605 61.3171 49.2636 62.0427C48.9063 62.7769 48.673 63.5692 48.5756 64.3999C48.469 65.2343 48.4223 66.1436 48.589 67.0119C48.8463 68.7879 49.641 70.5916 50.9276 72.0197C50.725 70.5556 51.0476 69.1796 51.5316 68.0717C52.0236 66.9583 52.777 66.0275 53.6223 65.2583L53.8463 65.0864C54.6023 66.2531 55.4636 67.3395 56.421 68.3343C56.2943 68.6452 56.1796 68.9651 56.093 69.2957C55.917 70.0171 55.8436 70.7848 55.8783 71.5864C55.8996 72.3999 56.0636 73.2061 56.357 73.9889C56.6463 74.7837 57.029 75.5999 57.5783 76.2957C58.6276 77.7531 60.1743 78.9848 61.9796 79.6515C61.1183 78.4488 60.7636 77.0837 60.6796 75.8728C60.5996 74.6545 60.8316 73.4905 61.2303 72.4129L61.349 72.1583C62.5423 72.8343 63.8103 73.3984 65.133 73.8395C65.1676 74.1728 65.2143 74.5093 65.2903 74.8427C65.4716 75.5635 65.7623 76.2769 66.1676 76.9703C66.5663 77.676 67.0863 78.3249 67.7143 78.8717C68.341 79.4212 69.0636 79.9968 69.8703 80.3479C71.477 81.1436 73.4023 81.4968 75.3116 81.2755C72.6543 79.8009 71.581 77.4624 71.2903 75.1984L71.2743 74.9171C71.4956 74.9249 71.7116 74.9515 71.9356 74.9515C73.121 74.9515 74.2743 74.8301 75.4076 74.6463C76.0063 75.5545 76.7996 76.3744 77.7743 76.9504C79.1316 77.8197 80.817 78.2515 82.633 78.2384C83.5156 78.1837 84.4463 78.0504 85.3436 77.7728C86.2143 77.4515 87.1037 77.0597 87.8917 76.5145C86.381 76.4905 85.0836 76.0556 84.045 75.4421C82.985 74.7984 82.145 73.9223 81.493 73.0036L81.349 72.764C82.5983 72.1545 83.7823 71.4291 84.8783 70.5984C85.833 71.1239 86.9196 71.4821 88.0476 71.5343C89.6516 71.6728 91.345 71.2785 92.9396 70.4212C93.6956 69.9651 94.461 69.4223 95.1223 68.7572C95.745 68.0676 96.3583 67.3155 96.797 66.4608C94.0756 67.8181 91.5263 67.3624 89.505 66.3155L89.2663 66.1703C90.0836 65.0597 90.7943 63.8717 91.3917 62.6155C92.4783 62.6369 93.6076 62.4488 94.6303 61.9744C96.1196 61.3504 97.4276 60.2061 98.449 58.7061C98.9063 57.9488 99.3076 57.1051 99.6076 56.2103C99.8423 55.3129 99.9876 54.3635 100.024 53.4061C99.1116 54.6317 98.053 55.4504 96.953 55.9572Z" fill="#204C7A"/>
<path d="M74.8997 81.0332C73.649 80.2463 72.7863 79.2545 72.2117 78.1769V78.1488C72.7877 79.2369 73.641 80.2411 74.8997 81.0332Z" fill="#FCFCFC"/>
<path d="M74.2437 81.3369C73.5557 81.3369 72.8743 81.2624 72.2117 81.1291V78.1769C72.7863 79.2545 73.649 80.2463 74.8997 81.0332C75.033 81.1155 75.1703 81.1968 75.3117 81.2755C74.9557 81.3171 74.5983 81.3369 74.2437 81.3369Z" fill="#30648C"/>
<path d="M82.545 78.2384C80.7623 78.2384 79.1103 77.8061 77.7743 76.9504C76.7997 76.3744 76.0063 75.5545 75.4077 74.6463C75.3943 74.6488 75.381 74.6515 75.3677 74.6531C75.3637 74.6545 75.3597 74.6545 75.3557 74.6556C74.3277 74.8197 73.2823 74.9212 72.2117 74.9384V62.6905C77.321 62.6905 81.465 58.5479 81.465 53.4384C81.465 48.3291 77.321 44.1879 72.2117 44.1879V29.4984C72.849 30.2583 73.3317 31.0821 73.6477 31.9463C75.0503 32.0572 76.4117 32.3036 77.7277 32.6703L77.7797 32.3957C77.8183 32.0479 77.8397 31.6905 77.8383 31.3275C77.837 29.3703 77.2063 27.2488 75.3117 25.5343C79.185 25.9821 82.3463 28.8264 83.1823 31.8999C83.4023 32.6411 83.5023 33.3744 83.5023 34.0905C83.5023 34.4651 83.4757 34.8359 83.4237 35.1999C84.597 35.9436 85.6903 36.7931 86.6957 37.7411L86.8703 37.5223C87.7263 36.2556 88.365 34.6916 88.3637 32.9249C88.3637 32.0916 88.221 31.2129 87.8917 30.2999C90.5904 32.1515 92.0477 35.2545 92.0477 38.0395C92.0463 38.5703 91.9943 39.0905 91.8863 39.5864C91.6623 40.7223 91.1903 41.7488 90.569 42.6239C91.2597 43.8129 91.8357 45.0717 92.289 46.3941L92.5477 46.2796C94.521 45.2197 96.3943 43.3572 96.797 40.3515C97.557 41.7848 97.9063 43.3531 97.9077 44.8692C97.9103 46.9968 97.2237 49.0264 96.017 50.4463C95.3077 51.3452 94.401 52.0317 93.4357 52.5181C93.449 52.8155 93.4797 53.1077 93.4797 53.4061C93.4797 54.5129 93.3717 55.5916 93.209 56.6545L93.489 56.6728C94.621 56.6597 95.8023 56.4624 96.953 55.9572C98.053 55.4504 99.1117 54.6317 100.024 53.4061C99.9877 54.3635 99.8423 55.3129 99.6077 56.2103C99.3077 57.1051 98.9063 57.9488 98.449 58.7061C97.4277 60.2061 96.1197 61.3504 94.6303 61.9744C93.6583 62.4249 92.5903 62.6171 91.553 62.6171C91.4997 62.6171 91.445 62.6171 91.3917 62.6155C90.7944 63.8717 90.0837 65.0597 89.2663 66.1703L89.505 66.3155C90.6383 66.9025 91.937 67.3036 93.3397 67.3036C94.4383 67.3036 95.601 67.0572 96.797 66.4608C96.3583 67.3155 95.745 68.0676 95.1223 68.7572C94.461 69.4223 93.6957 69.9651 92.9397 70.4212C91.5543 71.1665 90.093 71.5624 88.681 71.5624C88.469 71.5624 88.257 71.5531 88.0477 71.5343C86.9197 71.4821 85.833 71.1239 84.8783 70.5984C83.7823 71.4291 82.5983 72.1545 81.349 72.764L81.493 73.0036C82.145 73.9223 82.985 74.7984 84.045 75.4421C85.0837 76.0556 86.381 76.4905 87.8917 76.5145C87.1037 77.0597 86.2143 77.4515 85.3437 77.7728C84.4463 78.0504 83.5157 78.1837 82.633 78.2384C82.6037 78.2384 82.5743 78.2384 82.545 78.2384Z" fill="#30648C"/>
<path d="M38.7853 89.3776C34.8614 89.3776 31.6729 86.1973 31.6729 82.2719C31.6729 78.3489 34.8614 75.1602 38.7853 75.1602C42.7098 75.1602 45.8903 78.3489 45.8903 82.2719C45.8903 86.1973 42.7098 89.3776 38.7853 89.3776ZM38.7853 71.5338C32.8622 71.5338 28.0464 76.349 28.0464 82.2719C28.0464 88.1883 32.8622 93.0043 38.7853 93.0043C44.7017 93.0043 49.5168 88.1883 49.5168 82.2719C49.5168 76.349 44.7017 71.5338 38.7853 71.5338Z" fill="#9C9C9B"/>
<path d="M38.7853 94.4915C32.0449 94.4915 26.5598 89.0058 26.5598 82.2719C26.5598 75.5324 32.0449 70.0472 38.7853 70.0472C45.5277 70.0472 51.0034 75.5324 51.0034 82.2719C51.0034 89.0058 45.5277 94.4915 38.7853 94.4915ZM53.9553 82.2719C53.9553 81.8933 53.9253 81.5287 53.9027 81.1574C54.304 80.8535 54.6973 80.5189 54.9653 80.2575C55.2406 79.9915 55.4259 79.8121 55.4259 79.8121C55.4259 79.8121 55.2926 78.7861 55.0033 77.7916C54.8913 77.2781 54.6906 76.8029 54.5633 76.4388C54.43 76.067 54.334 75.8282 54.334 75.8282L52.8034 76.4691C52.6614 76.1191 52.4907 75.7917 52.3267 75.4568C52.5801 75.0183 52.8174 74.5577 52.9667 74.2163C53.1154 73.867 53.2194 73.6291 53.2194 73.6291C53.2194 73.6291 52.6987 72.7291 52.0521 71.9197C51.7548 71.4958 51.3834 71.1398 51.1221 70.8412C50.8628 70.5599 50.6921 70.3659 50.6921 70.3659L49.5102 71.5403C49.2502 71.2805 48.9749 71.0352 48.6862 70.7972C48.7595 70.2839 48.7895 69.7865 48.8049 69.4079C48.8115 69.0212 48.8115 68.7686 48.8115 68.7686C48.8115 68.7686 48.6042 68.6126 48.2916 68.3819C47.9729 68.1592 47.5263 67.9053 47.0869 67.6319C46.649 67.3572 46.1583 67.1632 45.8163 66.9845C45.4677 66.8132 45.229 66.7166 45.229 66.7166L44.5897 68.2558C44.2484 68.1147 43.8984 67.9873 43.5417 67.8686C43.4151 67.3707 43.2524 66.9106 43.1184 66.5541C42.9704 66.1973 42.8804 65.9512 42.8804 65.9512C42.8804 65.9512 42.6278 65.8926 42.2498 65.7952C41.8698 65.7221 41.3572 65.6546 40.8445 65.5726C40.3385 65.476 39.8186 65.4994 39.4326 65.4614C39.0386 65.446 38.7853 65.432 38.7853 65.432V67.096C38.4073 67.096 38.0426 67.1259 37.6707 67.1554C37.366 66.7465 37.0313 66.3613 36.772 66.0866C36.504 65.8179 36.3254 65.632 36.3254 65.632C36.3254 65.632 35.3001 65.758 34.3041 66.0567C33.7988 66.1673 33.3155 66.3613 32.9508 66.4939C32.5875 66.628 32.3422 66.7166 32.3422 66.7166L32.9808 68.2558C32.6322 68.3965 32.3055 68.5605 31.9709 68.7313C31.5322 68.4712 31.0716 68.2332 30.7296 68.092C30.3803 67.9353 30.1423 67.8391 30.1423 67.8391C30.1423 67.8391 29.2437 68.3519 28.441 69.0058C28.0097 69.304 27.6517 69.6745 27.3557 69.9271C27.0737 70.1878 26.8797 70.3659 26.8797 70.3659L28.0537 71.5403C27.7937 71.8005 27.5484 72.083 27.3104 72.365C26.7978 72.2911 26.3004 72.2616 25.9205 72.2538C25.5345 72.2471 25.2818 72.239 25.2818 72.239C25.2818 72.239 25.1258 72.4471 24.8945 72.759C24.6718 73.0796 24.4192 73.533 24.1445 73.9704C23.8692 74.409 23.6765 74.8923 23.4985 75.241C23.3279 75.5836 23.2306 75.8282 23.2306 75.8282L24.7692 76.4691C24.6285 76.8029 24.5012 77.1524 24.3825 77.5088C23.8852 77.6357 23.4312 77.8062 23.0666 77.9395C22.7106 78.0809 22.4726 78.1768 22.4726 78.1768C22.4726 78.1768 22.4059 78.4229 22.3093 78.8015C22.2339 79.1809 22.1673 79.6941 22.0866 80.2067C21.9973 80.7194 22.0113 81.2394 21.9813 81.6261C21.9599 82.012 21.9453 82.2719 21.9453 82.2719H23.6105C23.6105 82.644 23.6385 83.0154 23.6685 83.38C23.2606 83.6927 22.8739 84.0192 22.6059 84.2794C22.3319 84.5466 22.1453 84.726 22.1453 84.726C22.1453 84.726 22.2719 85.758 22.5686 86.7546C22.6806 87.2584 22.8739 87.7426 23.0072 88.1071C23.1412 88.4712 23.2306 88.7157 23.2306 88.7157L24.7692 88.0771C24.9098 88.4191 25.0738 88.7537 25.2458 89.0805C24.9845 89.5183 24.7538 89.9797 24.6052 90.3211C24.4492 90.6784 24.3525 90.9083 24.3525 90.9083C24.3525 90.9083 24.8732 91.8083 25.5191 92.6176C25.8171 93.041 26.1884 93.4056 26.4411 93.6957C26.7011 93.9863 26.8797 94.1714 26.8797 94.1714L28.0537 92.9975C28.321 93.2569 28.597 93.503 28.879 93.7475C28.8043 94.2535 28.7817 94.7509 28.767 95.1303C28.7597 95.5162 28.7597 95.7768 28.7597 95.7768C28.7597 95.7768 28.9683 95.9248 29.273 96.1635C29.5916 96.3787 30.0463 96.6388 30.4843 96.906C30.9223 97.1815 31.4136 97.3742 31.7549 97.5528C32.1049 97.7234 32.3422 97.82 32.3422 97.82L32.9808 96.2893C33.3155 96.4307 33.6728 96.5495 34.0215 96.6687C34.1481 97.1661 34.3195 97.6268 34.4528 97.9913C34.5941 98.3487 34.6914 98.5867 34.6914 98.5867C34.6914 98.5867 34.9434 98.6528 35.3154 98.7421C35.6941 98.8166 36.2147 98.8913 36.72 98.9734C37.2333 99.0614 37.7526 99.0392 38.1393 99.076C38.5253 99.0913 38.7853 99.1059 38.7853 99.1059V97.4414C39.1579 97.4414 39.5286 97.4114 39.8932 97.3901C40.2052 97.7908 40.5399 98.1846 40.7999 98.452C41.0592 98.7267 41.2385 98.9059 41.2385 98.9059C41.2385 98.9059 42.2711 98.7794 43.2684 98.4893C43.7731 98.37 44.2564 98.1767 44.6197 98.0515C44.9844 97.9093 45.229 97.82 45.229 97.82L44.5897 96.2893C44.9324 96.1409 45.2663 95.9768 45.5937 95.8141C46.039 96.0667 46.4936 96.3047 46.8343 96.4521C47.1916 96.6013 47.4216 96.7047 47.4216 96.7047C47.4216 96.6987 48.3216 96.1854 49.1315 95.5316C49.5548 95.2415 49.9182 94.8629 50.2095 94.6102C50.4988 94.3496 50.6921 94.1714 50.6921 94.1714L49.5102 92.9975C49.7782 92.7364 50.0155 92.4544 50.2608 92.1715C50.7741 92.2455 51.2641 92.2757 51.6434 92.291C52.0301 92.291 52.2901 92.2989 52.2901 92.2989C52.2901 92.2989 52.4461 92.0895 52.6754 91.7783C52.8914 91.4583 53.152 91.0049 53.4267 90.5664C53.7027 90.1284 53.8873 89.6451 54.066 89.3032C54.2373 88.9537 54.334 88.7157 54.334 88.7157L52.8034 88.0771C52.9434 87.7353 53.07 87.3866 53.182 87.0293C53.6873 86.9033 54.14 86.7311 54.5046 86.5986C54.8613 86.4564 55.0993 86.3679 55.0993 86.3679C55.0993 86.3679 55.1659 86.1153 55.2626 85.7354C55.3293 85.3564 55.4046 84.8439 55.4853 84.332C55.5753 83.818 55.5606 83.306 55.5899 82.9112C55.6053 82.5261 55.6193 82.2719 55.6193 82.2719H53.9553Z" fill="#9C9C9B"/>
</svg>
