<svg width="488" height="156" viewBox="0 0 488 156" fill="none" xmlns="http://www.w3.org/2000/svg">
<path d="M136.75 0H18.42C8.24691 0 0 8.24692 0 18.42V136.75C0 146.923 8.24691 155.17 18.42 155.17H136.75C146.923 155.17 155.17 146.923 155.17 136.75V18.42C155.17 8.24692 146.923 0 136.75 0Z" fill="url(#paint0_linear_1344_31)"/>
<path fill-rule="evenodd" clip-rule="evenodd" d="M94.1799 82.58C97.4299 79.31 101.18 76.85 106 77.84C108.049 78.314 109.983 79.191 111.69 80.42C122.18 87.59 139.12 99.75 139.38 99.94C135.125 89.7839 130.362 79.848 125.11 70.17C112.03 49.56 94.3899 82.19 94.1799 82.58Z" fill="url(#paint1_linear_1344_31)"/>
<path fill-rule="evenodd" clip-rule="evenodd" d="M78.18 76.05C80.1767 74.9473 81.9584 73.4941 83.44 71.76C83.97 71.17 84.44 70.55 84.99 69.9C95.99 55.82 102.67 30.15 125.04 70.25C111.96 49.64 94.32 82.25 94.11 82.66C89.39 87.41 85.75 93.85 81.55 93.85C75.88 93.85 63.81 83.85 53.55 79.13C64.91 82.01 73.02 79.29 78.18 76.05Z" fill="url(#paint2_linear_1344_31)"/>
<path fill-rule="evenodd" clip-rule="evenodd" d="M16.98 97.8401C24.46 95.7301 34.98 77.4601 43.98 76.6301C46.75 76.3801 50.09 77.4001 53.65 79.0501C64.91 82.0501 73.02 79.2901 78.18 76.0501C74.91 77.7301 71.18 77.8401 66.59 75.2501C63.203 73.1575 60.166 70.5456 57.59 67.5101C40.25 51.8201 24.25 85.0101 16.98 97.8401Z" fill="url(#paint3_linear_1344_31)"/>
<path fill-rule="evenodd" clip-rule="evenodd" d="M236.79 71.42C236.827 67.6323 236.049 63.8809 234.51 60.42C233.049 57.0854 230.949 54.0688 228.33 51.54C225.68 48.9706 222.573 46.9187 219.17 45.49C215.627 43.994 211.816 43.2386 207.97 43.27C200.421 43.2666 193.174 46.2378 187.8 51.54C185.181 54.0688 183.081 57.0854 181.62 60.42C180.116 63.8782 179.34 67.6089 179.34 71.38C179.34 75.1511 180.116 78.8818 181.62 82.34C184.596 89.1149 190.063 94.4857 196.89 97.34C200.391 98.8357 204.163 99.5915 207.97 99.56C211.816 99.5915 215.627 98.836 219.17 97.34C222.568 95.9232 225.674 93.8888 228.33 91.34C230.962 88.7756 233.062 85.7172 234.51 82.34L236.79 71.34V71.42ZM246.68 104.05C246.733 104.763 246.618 105.479 246.346 106.141C246.073 106.802 245.65 107.391 245.11 107.86C244.162 108.672 242.958 109.126 241.71 109.14C240.477 109.14 239.287 108.684 238.37 107.86C237.827 107.393 237.401 106.805 237.127 106.143C236.852 105.481 236.737 104.764 236.79 104.05V96.68C233.161 100.522 228.812 103.614 223.99 105.78C218.963 108.046 213.504 109.192 207.99 109.14C204.53 109.154 201.085 108.676 197.76 107.72C194.55 106.861 191.469 105.576 188.6 103.9C185.738 102.307 183.112 100.321 180.8 98C178.453 95.7502 176.433 93.1817 174.8 90.37C173.124 87.5712 171.83 84.5613 170.95 81.42C169.973 78.177 169.481 74.8071 169.49 71.42C169.457 66.3726 170.507 61.3768 172.57 56.77C174.506 52.2626 177.317 48.1839 180.84 44.77C188.088 37.6577 197.856 33.7031 208.01 33.77C211.467 33.7747 214.91 34.2285 218.25 35.12C221.483 36.0182 224.598 37.2972 227.53 38.93C230.369 40.5362 232.993 42.4951 235.34 44.76C237.662 47.0605 239.703 49.6284 241.42 52.41C243.105 55.2343 244.432 58.2576 245.37 61.41C246.254 64.6693 246.695 68.0329 246.68 71.41V104.05Z" fill="#102A63"/>
<path fill-rule="evenodd" clip-rule="evenodd" d="M323.35 71.42C323.386 67.6335 322.612 63.8831 321.08 60.42C319.612 57.0869 317.509 54.071 314.89 51.54C312.24 48.9706 309.133 46.9187 305.73 45.49C302.187 43.994 298.376 43.2386 294.53 43.27C286.981 43.2666 279.734 46.2378 274.36 51.54C271.747 54.0742 269.649 57.0895 268.18 60.42C266.676 63.8782 265.9 67.6089 265.9 71.38C265.9 75.1511 266.676 78.8818 268.18 82.34C271.156 89.1149 276.623 94.4857 283.45 97.34C286.951 98.8346 290.723 99.5904 294.53 99.56C298.376 99.5915 302.187 98.836 305.73 97.34C309.128 95.9232 312.234 93.8888 314.89 91.34C317.522 88.7734 319.625 85.7158 321.08 82.34L323.35 71.34V71.42ZM333.24 71.42C333.275 76.4677 332.235 81.4649 330.19 86.08C328.221 90.5642 325.398 94.6228 321.88 98.03C318.334 101.49 314.163 104.245 309.59 106.15C304.826 108.162 299.702 109.183 294.53 109.15C289.158 109.134 283.846 108.017 278.922 105.869C273.998 103.721 269.566 100.587 265.9 96.66V136.54C265.948 137.265 265.832 137.991 265.56 138.665C265.289 139.338 264.868 139.942 264.33 140.43C263.384 141.245 262.179 141.699 260.93 141.71C259.697 141.71 258.507 141.254 257.59 140.43C257.051 139.942 256.629 139.339 256.355 138.666C256.082 137.992 255.964 137.266 256.01 136.54V71.42C255.977 66.3726 257.027 61.3768 259.09 56.77C261.026 52.2626 263.837 48.1839 267.36 44.77C274.608 37.6577 284.376 33.7031 294.53 33.77C298 33.7647 301.456 34.2118 304.81 35.1C308.047 35.9876 311.163 37.2671 314.09 38.91C316.929 40.5162 319.553 42.4751 321.9 44.74C324.216 47.0339 326.25 49.5952 327.96 52.37C329.63 55.1996 330.95 58.2218 331.89 61.37L333.24 71.42Z" fill="#102A63"/>
<path fill-rule="evenodd" clip-rule="evenodd" d="M420.05 72.11C420.041 72.7065 419.901 73.2937 419.64 73.83C419.359 74.4036 418.972 74.9192 418.5 75.35C418.035 75.7958 417.502 76.1638 416.92 76.44C416.348 76.7222 415.718 76.8693 415.08 76.87H352.88C353.564 80.1676 354.838 83.3147 356.64 86.16C358.344 89.007 360.561 91.5129 363.18 93.55C368.422 97.8463 374.993 100.19 381.77 100.18C383.785 100.18 385.796 99.9756 387.77 99.57C389.694 99.1896 391.576 98.6236 393.39 97.88C397.081 96.3639 400.418 94.0996 403.19 91.23C403.688 90.6286 404.318 90.1496 405.03 89.83C405.645 89.6172 406.29 89.5058 406.94 89.5C408.237 89.4867 409.488 89.9779 410.43 90.87C410.884 91.2981 411.244 91.8163 411.487 92.3914C411.73 92.9664 411.85 93.5858 411.84 94.21C411.764 95.576 411.217 96.8734 410.29 97.88C408.47 99.7514 406.459 101.427 404.29 102.88C402.075 104.364 399.732 105.649 397.29 106.72C394.921 107.752 392.442 108.507 389.9 108.97C387.227 109.448 384.516 109.686 381.8 109.68C378.294 109.687 374.805 109.209 371.43 108.26C368.185 107.352 365.064 106.045 362.14 104.37C359.201 102.761 356.507 100.741 354.14 98.37C351.745 96.0703 349.673 93.4565 347.98 90.6C346.249 87.7644 344.904 84.7108 343.98 81.52C343.02 78.226 342.538 74.8111 342.55 71.38C342.519 66.2552 343.557 61.1803 345.6 56.48C347.53 51.9293 350.329 47.7988 353.84 44.32C357.364 40.8029 361.538 38.0044 366.13 36.08C370.932 34.0721 376.083 33.0324 381.288 33.0204C386.493 33.0084 391.649 34.0243 396.46 36.01C405.649 39.9682 413.001 47.2559 417.04 56.41C419.021 60.9204 420.043 65.7936 420.04 70.72V72.05L420.05 72.11ZM409.92 67.34C409.483 64.2273 408.548 61.2052 407.15 58.39C405.774 55.6337 403.956 53.1206 401.77 50.95C399.11 48.3935 396.006 46.3433 392.61 44.9C389.046 43.4452 385.229 42.7143 381.38 42.75C374.41 42.7193 367.664 45.2049 362.38 49.75C357.158 54.2554 353.748 60.5015 352.78 67.33L409.92 67.34Z" fill="#102A63"/>
<path fill-rule="evenodd" clip-rule="evenodd" d="M485.25 104.8C485.257 105.41 485.128 106.014 484.872 106.567C484.615 107.121 484.239 107.61 483.77 108C483.029 108.643 482.122 109.064 481.153 109.216C480.184 109.368 479.192 109.245 478.29 108.86C477.486 108.502 476.78 107.957 476.23 107.27L453.37 78.34L430.45 107.27C429.955 107.954 429.294 108.501 428.53 108.86C427.837 109.138 427.097 109.281 426.35 109.28C425.088 109.309 423.863 108.85 422.93 108C422.458 107.611 422.079 107.122 421.819 106.569C421.56 106.016 421.427 105.411 421.43 104.8C421.507 103.582 421.954 102.417 422.71 101.46L447.15 70.46L424.15 41.41C423.375 40.5022 422.925 39.3622 422.87 38.17C422.861 37.5274 422.991 36.8904 423.25 36.3021C423.508 35.7138 423.89 35.1879 424.37 34.76C425.327 33.9159 426.564 33.4594 427.84 33.48C428.57 33.484 429.293 33.6265 429.97 33.9C430.742 34.279 431.403 34.8507 431.89 35.56L453.41 62.56L474.79 35.56C475.31 34.8509 475.997 34.2809 476.79 33.9C477.7 33.5143 478.7 33.3904 479.677 33.5423C480.655 33.6943 481.57 34.116 482.32 34.76C482.8 35.1879 483.182 35.7138 483.44 36.3021C483.699 36.8904 483.829 37.5274 483.82 38.17C483.765 39.3622 483.315 40.5022 482.54 41.41L459.54 70.46L484.1 101.46C484.538 101.98 484.877 102.577 485.1 103.22L485.25 104.8Z" fill="#102A63"/>
<path fill-rule="evenodd" clip-rule="evenodd" d="M430.39 107.58C429.896 108.271 429.231 108.823 428.46 109.18C427.765 109.465 427.021 109.611 426.27 109.61C425 109.639 423.767 109.177 422.83 108.32C422.355 107.929 421.973 107.437 421.711 106.88C421.45 106.323 421.317 105.715 421.32 105.1C421.396 103.874 421.846 102.702 422.61 101.74L447.19 70.54L424.05 41.28C423.26 40.3682 422.801 39.2155 422.75 38.01C422.742 37.3626 422.874 36.7213 423.136 36.1294C423.399 35.5376 423.785 35.0091 424.27 34.58C425.229 33.7315 426.47 33.2715 427.75 33.29C428.488 33.2926 429.218 33.4386 429.9 33.72C430.677 34.1003 431.342 34.6757 431.83 35.39C466.34 78.75 433.28 37.13 459.62 70.54L430.39 107.58Z" fill="url(#paint4_linear_1344_31)"/>
<path fill-rule="evenodd" clip-rule="evenodd" d="M286.42 133.17C286.425 132.516 286.292 131.869 286.03 131.27C285.799 130.697 285.459 130.174 285.03 129.73C284.58 129.291 284.055 128.935 283.48 128.68C282.879 128.427 282.232 128.298 281.58 128.3C280.937 128.297 280.301 128.427 279.71 128.68C279.133 128.926 278.609 129.282 278.17 129.73C277.715 130.181 277.354 130.718 277.107 131.309C276.861 131.9 276.734 132.534 276.734 133.175C276.734 133.816 276.861 134.45 277.107 135.041C277.354 135.632 277.715 136.169 278.17 136.62C278.611 137.053 279.135 137.394 279.71 137.62C280.299 137.881 280.936 138.014 281.58 138.01C282.234 138.014 282.881 137.881 283.48 137.62C284.053 137.384 284.579 137.045 285.03 136.62C285.459 136.172 285.799 135.646 286.03 135.07L286.42 133.17ZM288.09 133.17C288.078 134.451 287.694 135.7 286.983 136.766C286.273 137.831 285.268 138.667 284.09 139.17C283.289 139.52 282.424 139.697 281.55 139.69C280.961 139.694 280.374 139.61 279.81 139.44C279.265 139.293 278.744 139.071 278.26 138.78C277.293 138.213 276.487 137.407 275.92 136.44C275.63 135.958 275.405 135.44 275.25 134.9C275.081 134.339 274.997 133.756 275 133.17V121.9C274.989 121.776 275.008 121.652 275.055 121.537C275.102 121.423 275.176 121.321 275.27 121.24C275.419 121.093 275.62 121.01 275.83 121.01C276.045 121.014 276.251 121.096 276.41 121.24C276.501 121.323 276.571 121.426 276.616 121.54C276.661 121.654 276.68 121.777 276.67 121.9V128.79C277.267 128.118 278 127.579 278.82 127.21C279.666 126.819 280.588 126.621 281.52 126.63C282.106 126.644 282.688 126.735 283.25 126.9C283.798 127.055 284.325 127.277 284.82 127.56C285.301 127.835 285.745 128.171 286.14 128.56C286.525 128.958 286.861 129.401 287.14 129.88C287.426 130.374 287.651 130.902 287.81 131.45L288.09 133.17Z" fill="url(#paint5_linear_1344_31)"/>
<path fill-rule="evenodd" clip-rule="evenodd" d="M379.9 127.46C379.898 127.67 379.82 127.873 379.68 128.03C379.599 128.124 379.497 128.198 379.383 128.245C379.268 128.292 379.144 128.311 379.02 128.3H374.93V134.06C374.945 135.107 375.36 136.109 376.09 136.86C376.458 137.221 376.888 137.513 377.36 137.72C377.853 137.942 378.389 138.055 378.93 138.05C379.052 138.041 379.174 138.058 379.288 138.101C379.402 138.145 379.505 138.212 379.59 138.3C379.731 138.455 379.808 138.656 379.808 138.865C379.808 139.074 379.731 139.275 379.59 139.43C379.508 139.522 379.406 139.595 379.291 139.642C379.177 139.688 379.053 139.708 378.93 139.7C378.171 139.706 377.419 139.556 376.72 139.26C375.373 138.681 374.299 137.607 373.72 136.26C373.418 135.57 373.264 134.824 373.27 134.07V121.9C373.259 121.776 373.278 121.652 373.325 121.537C373.372 121.423 373.446 121.321 373.54 121.24C373.691 121.095 373.891 121.012 374.1 121.01C374.315 121.014 374.521 121.096 374.68 121.24C374.771 121.323 374.841 121.426 374.886 121.54C374.931 121.654 374.95 121.777 374.94 121.9V126.63H379.03C379.151 126.619 379.273 126.635 379.387 126.677C379.501 126.718 379.604 126.784 379.69 126.87L379.9 127.46Z" fill="url(#paint6_linear_1344_31)"/>
<path fill-rule="evenodd" clip-rule="evenodd" d="M425.57 127.46C425.568 127.67 425.49 127.873 425.35 128.03C425.269 128.124 425.168 128.198 425.053 128.245C424.938 128.292 424.814 128.311 424.69 128.3H420.6V138.9C420.611 139.026 420.593 139.152 420.548 139.27C420.503 139.387 420.432 139.493 420.34 139.58C420.178 139.718 419.973 139.795 419.76 139.8C419.553 139.797 419.354 139.718 419.2 139.58C419.105 139.496 419.031 139.39 418.984 139.272C418.937 139.154 418.919 139.027 418.93 138.9V126.8C418.924 126.047 419.078 125.3 419.38 124.61C419.667 123.939 420.073 123.325 420.58 122.8C421.105 122.276 421.729 121.861 422.416 121.579C423.102 121.298 423.838 121.155 424.58 121.16C424.702 121.15 424.824 121.167 424.938 121.21C425.053 121.254 425.156 121.322 425.24 121.41C425.375 121.566 425.453 121.764 425.46 121.97C425.453 122.179 425.376 122.38 425.24 122.54C425.158 122.633 425.056 122.706 424.942 122.753C424.827 122.799 424.703 122.819 424.58 122.81C424.041 122.803 423.506 122.909 423.01 123.12C422.538 123.331 422.107 123.626 421.74 123.99C421.392 124.338 421.114 124.748 420.92 125.2C420.709 125.673 420.593 126.182 420.58 126.7H424.67C424.791 126.689 424.913 126.705 425.027 126.747C425.141 126.788 425.244 126.854 425.33 126.94L425.57 127.46Z" fill="url(#paint7_linear_1344_31)"/>
<path fill-rule="evenodd" clip-rule="evenodd" d="M302.48 134.06C302.489 134.819 302.339 135.572 302.04 136.27C301.741 136.942 301.325 137.555 300.81 138.08C300.289 138.594 299.674 139.005 299 139.29C298.303 139.593 297.551 139.75 296.79 139.75C296.03 139.75 295.277 139.593 294.58 139.29C293.901 139.007 293.284 138.596 292.76 138.08C292.239 137.562 291.824 136.947 291.54 136.27C291.23 135.575 291.073 134.821 291.08 134.06V127.53C291.069 127.407 291.088 127.282 291.135 127.167C291.182 127.053 291.256 126.951 291.35 126.87C291.505 126.727 291.709 126.648 291.92 126.65C292.13 126.652 292.333 126.73 292.49 126.87C292.584 126.951 292.658 127.053 292.705 127.167C292.752 127.282 292.771 127.407 292.76 127.53V134.06C292.755 134.596 292.861 135.127 293.07 135.62C293.275 136.102 293.57 136.54 293.94 136.91C294.305 137.279 294.74 137.571 295.22 137.77C295.715 137.988 296.25 138.1 296.79 138.1C297.331 138.1 297.865 137.988 298.36 137.77C298.834 137.566 299.265 137.274 299.63 136.91C299.994 136.535 300.288 136.098 300.5 135.62C300.709 135.127 300.815 134.596 300.81 134.06V127.53C300.8 127.408 300.819 127.284 300.864 127.17C300.909 127.056 300.98 126.953 301.07 126.87C301.23 126.729 301.436 126.651 301.65 126.65C301.861 126.65 302.064 126.729 302.22 126.87C302.312 126.952 302.384 127.054 302.429 127.169C302.475 127.284 302.492 127.407 302.48 127.53V134.06Z" fill="url(#paint8_linear_1344_31)"/>
<path fill-rule="evenodd" clip-rule="evenodd" d="M307.58 138.9C307.593 139.026 307.576 139.153 307.531 139.271C307.486 139.389 307.413 139.495 307.32 139.58C307.162 139.722 306.957 139.8 306.745 139.8C306.533 139.8 306.328 139.722 306.17 139.58C306.077 139.495 306.004 139.389 305.959 139.271C305.914 139.153 305.897 139.026 305.91 138.9V127.47C305.899 127.346 305.917 127.221 305.962 127.105C306.007 126.988 306.078 126.884 306.17 126.8C306.325 126.651 306.531 126.569 306.745 126.569C306.959 126.569 307.165 126.651 307.32 126.8C307.412 126.884 307.483 126.988 307.528 127.105C307.573 127.221 307.591 127.346 307.58 127.47V138.9ZM308.02 123.64C308.02 123.801 307.989 123.96 307.93 124.11C307.866 124.265 307.771 124.404 307.65 124.52C307.537 124.637 307.4 124.729 307.25 124.79C307.09 124.862 306.916 124.899 306.74 124.9C306.567 124.899 306.397 124.862 306.24 124.79C306.087 124.734 305.949 124.641 305.84 124.52C305.722 124.404 305.63 124.264 305.57 124.11C305.5 123.963 305.462 123.803 305.46 123.64C305.461 123.467 305.498 123.297 305.57 123.14C305.696 122.828 305.935 122.574 306.24 122.43C306.4 122.37 306.569 122.339 306.74 122.34C306.914 122.339 307.087 122.369 307.25 122.43C307.397 122.506 307.532 122.604 307.65 122.72C307.769 122.841 307.864 122.984 307.93 123.14L308.02 123.64Z" fill="url(#paint9_linear_1344_31)"/>
<path fill-rule="evenodd" clip-rule="evenodd" d="M312.68 138.9C312.69 139.026 312.672 139.152 312.627 139.27C312.582 139.387 312.511 139.493 312.42 139.58C312.257 139.718 312.053 139.795 311.84 139.8C311.632 139.798 311.433 139.72 311.28 139.58C311.185 139.496 311.111 139.39 311.064 139.272C311.017 139.154 310.998 139.027 311.01 138.9V121.9C310.999 121.776 311.018 121.652 311.065 121.537C311.112 121.423 311.186 121.321 311.28 121.24C311.429 121.093 311.63 121.01 311.84 121.01C312.055 121.014 312.261 121.096 312.42 121.24C312.51 121.323 312.581 121.426 312.626 121.54C312.671 121.654 312.689 121.777 312.68 121.9V138.9Z" fill="url(#paint10_linear_1344_31)"/>
<path fill-rule="evenodd" clip-rule="evenodd" d="M327.06 133.17C327.068 132.517 326.939 131.87 326.68 131.27C326.433 130.693 326.076 130.17 325.63 129.73C325.181 129.289 324.656 128.933 324.08 128.68C323.479 128.426 322.833 128.296 322.18 128.3C321.537 128.297 320.901 128.427 320.31 128.68C319.733 128.926 319.209 129.282 318.77 129.73C318.344 130.177 318.005 130.699 317.77 131.27C317.511 131.87 317.382 132.517 317.39 133.17C317.384 133.823 317.513 134.47 317.77 135.07C318.005 135.644 318.344 136.169 318.77 136.62C319.211 137.053 319.735 137.394 320.31 137.62C320.899 137.881 321.536 138.014 322.18 138.01C322.834 138.015 323.481 137.882 324.08 137.62C324.654 137.386 325.18 137.047 325.63 136.62C326.077 136.176 326.433 135.65 326.68 135.07L327.06 133.17ZM328.74 133.17C328.741 134.027 328.571 134.875 328.239 135.665C327.908 136.455 327.422 137.17 326.81 137.77C326.219 138.371 325.515 138.85 324.74 139.18C323.936 139.529 323.067 139.706 322.19 139.7C321.604 139.704 321.021 139.62 320.46 139.45C319.915 139.305 319.393 139.083 318.91 138.79C318.424 138.517 317.977 138.181 317.58 137.79C317.187 137.398 316.851 136.954 316.58 136.47C316.298 135.983 316.08 135.462 315.93 134.92C315.767 134.358 315.682 133.776 315.68 133.19C315.677 132.317 315.854 131.452 316.2 130.65C316.527 129.873 317.003 129.166 317.6 128.57C318.197 127.979 318.899 127.504 319.67 127.17C320.472 126.837 321.332 126.667 322.2 126.67C323.138 126.659 324.068 126.857 324.92 127.25C325.741 127.622 326.477 128.16 327.08 128.83V121.9C327.069 121.776 327.088 121.652 327.135 121.537C327.182 121.423 327.256 121.321 327.35 121.24C327.505 121.095 327.708 121.013 327.92 121.01C328.132 121.014 328.335 121.096 328.49 121.24C328.584 121.321 328.658 121.423 328.705 121.537C328.752 121.652 328.771 121.776 328.76 121.9L328.74 133.17Z" fill="url(#paint11_linear_1344_31)"/>
<path fill-rule="evenodd" clip-rule="evenodd" d="M333.84 138.9C333.853 139.026 333.836 139.153 333.791 139.271C333.746 139.389 333.673 139.495 333.58 139.58C333.422 139.718 333.22 139.796 333.01 139.8C332.797 139.795 332.593 139.718 332.43 139.58C332.339 139.493 332.268 139.387 332.223 139.27C332.178 139.152 332.16 139.026 332.17 138.9V127.47C332.161 127.346 332.18 127.222 332.225 127.106C332.27 126.99 332.34 126.885 332.43 126.8C332.589 126.656 332.795 126.574 333.01 126.57C333.222 126.573 333.425 126.655 333.58 126.8C333.672 126.884 333.743 126.988 333.788 127.105C333.834 127.221 333.851 127.346 333.84 127.47V138.9ZM334.29 123.64C334.287 123.802 334.253 123.961 334.19 124.11C334.126 124.265 334.031 124.404 333.91 124.52C333.799 124.639 333.662 124.731 333.51 124.79C333.35 124.862 333.176 124.899 333 124.9C332.831 124.899 332.664 124.862 332.51 124.79C332.353 124.735 332.212 124.643 332.1 124.52C331.985 124.401 331.894 124.262 331.83 124.11C331.763 123.963 331.728 123.802 331.73 123.64C331.728 123.468 331.762 123.298 331.83 123.14C331.896 122.986 331.987 122.844 332.1 122.72C332.218 122.599 332.357 122.501 332.51 122.43C332.666 122.369 332.833 122.339 333 122.34C333.174 122.339 333.347 122.369 333.51 122.43C333.659 122.503 333.794 122.601 333.91 122.72C334.029 122.841 334.124 122.984 334.19 123.14L334.29 123.64Z" fill="url(#paint12_linear_1344_31)"/>
<path fill-rule="evenodd" clip-rule="evenodd" d="M348.67 138.9C348.683 139.026 348.666 139.153 348.621 139.271C348.576 139.389 348.503 139.495 348.41 139.58C348.252 139.722 348.047 139.801 347.835 139.801C347.623 139.801 347.418 139.722 347.26 139.58C347.167 139.495 347.095 139.389 347.049 139.271C347.004 139.153 346.987 139.026 347 138.9V132.39C347.004 131.86 346.903 131.334 346.702 130.843C346.502 130.352 346.205 129.905 345.83 129.53C345.463 129.166 345.033 128.871 344.56 128.66C344.063 128.452 343.529 128.347 342.99 128.35C342.451 128.345 341.917 128.45 341.42 128.66C340.942 128.866 340.507 129.161 340.14 129.53C339.768 129.895 339.472 130.33 339.27 130.81C339.054 131.309 338.945 131.847 338.95 132.39V138.9C338.962 139.027 338.943 139.154 338.896 139.272C338.849 139.39 338.775 139.496 338.68 139.58C338.518 139.718 338.313 139.795 338.1 139.8C337.893 139.795 337.695 139.717 337.54 139.58C337.441 139.498 337.363 139.393 337.313 139.275C337.263 139.157 337.241 139.028 337.25 138.9V132.39C337.262 130.888 337.866 129.45 338.93 128.39C339.455 127.876 340.068 127.459 340.74 127.16C342.159 126.574 343.752 126.574 345.17 127.16C345.842 127.459 346.455 127.876 346.98 128.39C347.497 128.91 347.913 129.52 348.21 130.19C348.502 130.894 348.652 131.648 348.65 132.41L348.67 138.9Z" fill="url(#paint13_linear_1344_31)"/>
<path fill-rule="evenodd" clip-rule="evenodd" d="M363.05 133.17C363.058 132.517 362.929 131.87 362.67 131.27C362.42 130.695 362.063 130.173 361.62 129.73C361.171 129.289 360.646 128.933 360.07 128.68C359.469 128.426 358.823 128.297 358.17 128.3C357.527 128.298 356.891 128.427 356.3 128.68C355.723 128.926 355.199 129.282 354.76 129.73C354.317 130.173 353.96 130.695 353.71 131.27C353.451 131.87 353.322 132.517 353.33 133.17C353.324 133.823 353.453 134.47 353.71 135.07C353.96 135.648 354.316 136.173 354.76 136.62C355.201 137.054 355.725 137.394 356.3 137.62C356.889 137.881 357.526 138.014 358.17 138.01C358.824 138.015 359.471 137.882 360.07 137.62C360.644 137.386 361.17 137.047 361.62 136.62C362.064 136.173 362.42 135.648 362.67 135.07L363.05 133.17ZM364.73 138.66C364.734 139.551 364.554 140.433 364.2 141.25C363.86 142.039 363.371 142.756 362.76 143.36C362.149 143.974 361.426 144.466 360.63 144.81C359.809 145.163 358.924 145.343 358.03 145.34C357.176 145.338 356.331 145.172 355.54 144.85C355.15 144.691 354.775 144.497 354.42 144.27C354.064 144.048 353.729 143.794 353.42 143.51C353.328 143.426 353.254 143.324 353.202 143.211C353.151 143.097 353.123 142.975 353.12 142.85C353.116 142.745 353.133 142.64 353.171 142.542C353.209 142.444 353.266 142.355 353.34 142.28C353.415 142.202 353.505 142.14 353.605 142.099C353.705 142.058 353.812 142.038 353.92 142.04C354.026 142.042 354.131 142.063 354.23 142.1C354.349 142.15 354.46 142.218 354.56 142.3C355.015 142.744 355.561 143.086 356.16 143.3C356.449 143.412 356.747 143.503 357.05 143.57C357.38 143.625 357.715 143.651 358.05 143.65C358.738 143.663 359.42 143.526 360.05 143.25C360.648 142.992 361.191 142.622 361.65 142.16C362.107 141.701 362.477 141.162 362.74 140.57C362.999 139.953 363.132 139.29 363.13 138.62V137.5C362.518 138.162 361.78 138.696 360.96 139.07C360.111 139.465 359.186 139.667 358.25 139.66C357.664 139.665 357.081 139.58 356.52 139.41C355.971 139.265 355.446 139.043 354.96 138.75C354.479 138.475 354.035 138.139 353.64 137.75C353.247 137.358 352.911 136.914 352.64 136.43C352.358 135.943 352.14 135.422 351.99 134.88C351.822 134.319 351.738 133.736 351.74 133.15C351.733 132.276 351.91 131.411 352.26 130.61C352.587 129.833 353.063 129.126 353.66 128.53C354.257 127.939 354.959 127.464 355.73 127.13C356.531 126.796 357.392 126.626 358.26 126.63C358.848 126.63 359.433 126.707 360 126.86C360.551 127.016 361.082 127.237 361.58 127.52C362.061 127.795 362.505 128.131 362.9 128.52C363.285 128.918 363.621 129.362 363.9 129.84C364.5 130.835 364.809 131.978 364.79 133.14L364.73 138.66Z" fill="url(#paint14_linear_1344_31)"/>
<path fill-rule="evenodd" clip-rule="evenodd" d="M394.25 138.9C394.263 139.026 394.246 139.153 394.201 139.271C394.156 139.389 394.083 139.495 393.99 139.58C393.831 139.717 393.63 139.795 393.42 139.8C393.207 139.795 393.002 139.718 392.84 139.58C392.748 139.493 392.678 139.387 392.633 139.27C392.587 139.152 392.57 139.026 392.58 138.9V132.39C392.584 131.86 392.483 131.333 392.282 130.842C392.081 130.351 391.785 129.905 391.41 129.53C391.043 129.166 390.612 128.871 390.14 128.66C389.643 128.452 389.109 128.347 388.57 128.35C388.034 128.345 387.503 128.45 387.01 128.66C386.527 128.863 386.089 129.158 385.72 129.53C385.348 129.895 385.052 130.33 384.85 130.81C384.634 131.308 384.525 131.847 384.53 132.39V138.9C384.542 139.027 384.523 139.154 384.476 139.272C384.429 139.39 384.355 139.496 384.26 139.58C384.1 139.715 383.899 139.793 383.69 139.8C383.48 139.796 383.278 139.718 383.12 139.58C383.025 139.496 382.951 139.39 382.904 139.272C382.857 139.154 382.839 139.027 382.85 138.9V121.9C382.839 121.776 382.858 121.652 382.905 121.537C382.952 121.423 383.026 121.321 383.12 121.24C383.275 121.095 383.478 121.013 383.69 121.01C383.901 121.016 384.104 121.097 384.26 121.24C384.354 121.321 384.428 121.423 384.475 121.537C384.522 121.652 384.541 121.776 384.53 121.9V128.3C385.056 127.762 385.685 127.337 386.38 127.05C387.794 126.477 389.376 126.477 390.79 127.05C392.127 127.643 393.197 128.713 393.79 130.05C394.087 130.752 394.237 131.508 394.23 132.27L394.25 138.9Z" fill="url(#paint15_linear_1344_31)"/>
<path fill-rule="evenodd" clip-rule="evenodd" d="M410.39 133.28C410.388 133.384 410.365 133.486 410.32 133.58C410.271 133.679 410.207 133.77 410.13 133.85C410.049 133.922 409.958 133.983 409.86 134.03C409.765 134.081 409.658 134.108 409.55 134.11H399.02C399.135 134.679 399.348 135.224 399.65 135.72C399.94 136.21 400.316 136.644 400.76 137C401.193 137.36 401.683 137.644 402.21 137.84C403.078 138.168 404.023 138.238 404.93 138.04C405.256 137.975 405.574 137.878 405.88 137.75C406.508 137.487 407.073 137.095 407.54 136.6C407.626 136.497 407.731 136.412 407.85 136.35C407.957 136.319 408.068 136.302 408.18 136.3C408.399 136.296 408.612 136.378 408.77 136.53C408.847 136.606 408.908 136.696 408.949 136.796C408.991 136.895 409.011 137.002 409.01 137.11C408.999 137.349 408.904 137.576 408.74 137.75C408.439 138.075 408.104 138.367 407.74 138.62C407.366 138.879 406.967 139.1 406.55 139.28C406.151 139.461 405.731 139.592 405.3 139.67C404.849 139.759 404.39 139.803 403.93 139.8C403.334 139.803 402.741 139.719 402.17 139.55C401.622 139.391 401.094 139.166 400.6 138.88C400.105 138.612 399.65 138.276 399.25 137.88C398.858 137.481 398.521 137.03 398.25 136.54C397.962 136.047 397.737 135.519 397.58 134.97C397.416 134.398 397.332 133.805 397.33 133.21C397.333 131.456 398.023 129.773 399.25 128.52C399.844 127.913 400.55 127.427 401.33 127.09C402.14 126.736 403.016 126.555 403.9 126.56C404.78 126.556 405.652 126.733 406.46 127.08C407.23 127.424 407.929 127.909 408.52 128.51C409.128 129.113 409.611 129.83 409.94 130.62C410.279 131.399 410.453 132.24 410.45 133.09V133.32L410.39 133.28ZM408.67 132.46C408.537 131.389 408.056 130.391 407.3 129.62C406.846 129.181 406.318 128.825 405.74 128.57C405.139 128.317 404.492 128.191 403.84 128.2C403.242 128.198 402.649 128.306 402.09 128.52C401.552 128.729 401.054 129.03 400.62 129.41C400.186 129.793 399.824 130.25 399.55 130.76C399.262 131.287 399.075 131.864 399 132.46H408.67Z" fill="url(#paint16_linear_1344_31)"/>
<path fill-rule="evenodd" clip-rule="evenodd" d="M439.96 134.06C439.969 134.819 439.819 135.572 439.52 136.27C439.221 136.942 438.805 137.555 438.29 138.08C437.769 138.594 437.154 139.005 436.48 139.29C435.785 139.599 435.031 139.756 434.27 139.75C433.509 139.758 432.755 139.601 432.06 139.29C431.381 139.007 430.764 138.596 430.24 138.08C429.719 137.562 429.304 136.947 429.02 136.27C428.71 135.575 428.553 134.821 428.56 134.06V127.53C428.549 127.407 428.568 127.282 428.615 127.167C428.662 127.053 428.736 126.951 428.83 126.87C428.985 126.727 429.189 126.648 429.4 126.65C429.61 126.652 429.813 126.73 429.97 126.87C430.064 126.951 430.138 127.053 430.185 127.167C430.232 127.282 430.251 127.407 430.24 127.53V134.06C430.235 134.596 430.341 135.127 430.55 135.62C430.755 136.102 431.05 136.54 431.42 136.91C431.785 137.279 432.22 137.571 432.7 137.77C433.195 137.988 433.729 138.1 434.27 138.1C434.811 138.1 435.345 137.988 435.84 137.77C436.314 137.566 436.745 137.274 437.11 136.91C437.474 136.535 437.768 136.098 437.98 135.62C438.189 135.127 438.295 134.596 438.29 134.06V127.53C438.28 127.408 438.299 127.284 438.344 127.17C438.389 127.056 438.459 126.953 438.55 126.87C438.71 126.729 438.916 126.651 439.13 126.65C439.341 126.65 439.544 126.729 439.7 126.87C439.792 126.952 439.864 127.054 439.909 127.169C439.955 127.284 439.972 127.407 439.96 127.53V134.06Z" fill="url(#paint17_linear_1344_31)"/>
<path fill-rule="evenodd" clip-rule="evenodd" d="M449.58 127.46C449.577 127.668 449.503 127.87 449.37 128.03C449.288 128.122 449.186 128.195 449.071 128.242C448.957 128.288 448.833 128.308 448.71 128.3H444.62V134.06C444.622 135.108 445.035 136.113 445.77 136.86C446.141 137.221 446.575 137.513 447.05 137.72C447.54 137.942 448.072 138.055 448.61 138.05C448.732 138.038 448.855 138.055 448.969 138.098C449.083 138.142 449.186 138.211 449.27 138.3C449.41 138.455 449.488 138.656 449.488 138.865C449.488 139.074 449.41 139.275 449.27 139.43C449.189 139.524 449.087 139.598 448.973 139.645C448.858 139.692 448.733 139.711 448.61 139.7C447.851 139.705 447.099 139.555 446.4 139.26C445.735 138.974 445.131 138.563 444.62 138.05C444.101 137.532 443.684 136.921 443.39 136.25C443.088 135.56 442.934 134.814 442.94 134.06V121.9C442.929 121.776 442.948 121.652 442.995 121.537C443.042 121.423 443.116 121.321 443.21 121.24C443.365 121.095 443.568 121.013 443.78 121.01C443.991 121.016 444.194 121.097 444.35 121.24C444.444 121.321 444.518 121.423 444.565 121.537C444.612 121.652 444.631 121.776 444.62 121.9V126.63H448.71C448.831 126.621 448.952 126.638 449.066 126.68C449.179 126.721 449.283 126.786 449.37 126.87L449.58 127.46Z" fill="url(#paint18_linear_1344_31)"/>
<path fill-rule="evenodd" clip-rule="evenodd" d="M463.98 134.06C463.985 134.82 463.832 135.573 463.53 136.27C462.95 137.616 461.876 138.69 460.53 139.27C459.831 139.578 459.074 139.735 458.31 139.73C457.549 139.736 456.795 139.579 456.1 139.27C454.746 138.7 453.67 137.624 453.1 136.27C452.798 135.573 452.644 134.82 452.65 134.06V127.53C452.64 127.408 452.659 127.284 452.704 127.17C452.749 127.056 452.819 126.953 452.91 126.87C453.065 126.727 453.269 126.648 453.48 126.65C453.691 126.65 453.894 126.729 454.05 126.87C454.144 126.951 454.218 127.053 454.265 127.167C454.312 127.282 454.331 127.407 454.32 127.53V134.06C454.315 134.596 454.421 135.127 454.63 135.62C454.834 136.102 455.13 136.54 455.5 136.91C455.867 137.281 456.306 137.574 456.79 137.77C457.283 137.987 457.816 138.1 458.355 138.1C458.894 138.1 459.427 137.987 459.92 137.77C460.395 137.568 460.826 137.276 461.19 136.91C461.557 136.537 461.852 136.1 462.06 135.62C462.269 135.127 462.375 134.596 462.37 134.06V127.53C462.359 127.407 462.378 127.282 462.425 127.167C462.472 127.053 462.546 126.951 462.64 126.87C462.796 126.729 462.999 126.651 463.21 126.651C463.421 126.651 463.624 126.729 463.78 126.87C463.874 126.951 463.948 127.053 463.995 127.167C464.042 127.282 464.061 127.407 464.05 127.53L463.98 134.06Z" fill="url(#paint19_linear_1344_31)"/>
<path fill-rule="evenodd" clip-rule="evenodd" d="M473.55 127.46C473.548 127.67 473.47 127.873 473.33 128.03C473.249 128.124 473.147 128.198 473.033 128.245C472.918 128.292 472.793 128.311 472.67 128.3C472.133 128.294 471.601 128.403 471.11 128.62C470.628 128.834 470.188 129.132 469.81 129.5C469.429 129.867 469.127 130.308 468.924 130.797C468.721 131.286 468.621 131.811 468.63 132.34V138.9C468.641 139.027 468.623 139.154 468.576 139.272C468.529 139.39 468.455 139.496 468.36 139.58C468.204 139.721 468.001 139.799 467.79 139.799C467.579 139.799 467.376 139.721 467.22 139.58C467.128 139.493 467.057 139.387 467.012 139.27C466.967 139.152 466.949 139.026 466.96 138.9V132.39C466.95 131.627 467.1 130.871 467.4 130.17C468.001 128.82 469.09 127.748 470.45 127.17C471.153 126.875 471.908 126.725 472.67 126.73C472.791 126.719 472.913 126.735 473.027 126.777C473.141 126.818 473.244 126.884 473.33 126.97L473.55 127.46Z" fill="url(#paint20_linear_1344_31)"/>
<path fill-rule="evenodd" clip-rule="evenodd" d="M487.81 133.28C487.808 133.384 487.784 133.486 487.74 133.58C487.691 133.682 487.623 133.773 487.54 133.85C487.462 133.922 487.375 133.983 487.28 134.03C487.18 134.08 487.071 134.107 486.96 134.11H476.43C476.548 134.68 476.765 135.225 477.07 135.72C477.357 136.212 477.733 136.646 478.18 137C478.753 137.474 479.426 137.81 480.149 137.984C480.872 138.157 481.625 138.163 482.35 138C482.675 137.934 482.993 137.837 483.3 137.71C483.926 137.444 484.491 137.052 484.96 136.56C485.043 136.455 485.149 136.369 485.27 136.31C485.374 136.279 485.482 136.262 485.59 136.26C485.698 136.256 485.806 136.274 485.908 136.313C486.009 136.352 486.101 136.411 486.179 136.487C486.256 136.563 486.318 136.653 486.359 136.754C486.401 136.854 486.421 136.962 486.42 137.07C486.412 137.307 486.32 137.534 486.16 137.71C485.859 138.035 485.524 138.327 485.16 138.58C484.785 138.836 484.386 139.057 483.97 139.24C483.57 139.419 483.151 139.55 482.72 139.63C482.269 139.719 481.81 139.763 481.35 139.76C480.754 139.765 480.161 139.68 479.59 139.51C479.042 139.351 478.514 139.126 478.02 138.84C477.525 138.572 477.07 138.236 476.67 137.84C476.278 137.44 475.941 136.99 475.67 136.5C475.382 136.007 475.157 135.479 475 134.93C474.603 133.493 474.701 131.964 475.28 130.59C475.602 129.803 476.074 129.087 476.67 128.48C477.266 127.875 477.972 127.39 478.75 127.05C479.562 126.703 480.437 126.525 481.32 126.525C482.203 126.525 483.078 126.703 483.89 127.05C484.66 127.394 485.359 127.879 485.95 128.48C486.551 129.088 487.033 129.804 487.37 130.59C487.709 131.369 487.883 132.21 487.88 133.06V133.29L487.81 133.28ZM486.09 132.46C485.949 131.389 485.465 130.393 484.71 129.62C484.26 129.181 483.735 128.825 483.16 128.57C482.558 128.319 481.912 128.193 481.26 128.2C480.659 128.2 480.063 128.308 479.5 128.52C478.966 128.731 478.472 129.032 478.04 129.41C477.603 129.79 477.24 130.248 476.97 130.76C476.683 131.288 476.493 131.864 476.41 132.46H486.09Z" fill="url(#paint21_linear_1344_31)"/>
<defs>
<linearGradient id="paint0_linear_1344_31" x1="0" y1="77.58" x2="155.17" y2="77.58" gradientUnits="userSpaceOnUse">
<stop stop-color="#00B1EB"/>
<stop offset="1" stop-color="#5A328A"/>
</linearGradient>
<linearGradient id="paint1_linear_1344_31" x1="135.73" y1="82.99" x2="99.3099" y2="76.91" gradientUnits="userSpaceOnUse">
<stop stop-color="white"/>
<stop offset="1" stop-color="#B2B2B2"/>
</linearGradient>
<linearGradient id="paint2_linear_1344_31" x1="107.48" y1="64.22" x2="71.29" y2="81.44" gradientUnits="userSpaceOnUse">
<stop stop-color="white"/>
<stop offset="1" stop-color="#C6C6C6"/>
</linearGradient>
<linearGradient id="paint3_linear_1344_31" x1="76.09" y1="80.2801" x2="30.38" y2="80.6301" gradientUnits="userSpaceOnUse">
<stop stop-color="white"/>
<stop offset="0.45" stop-color="#E8E8E8"/>
<stop offset="1" stop-color="#C6C6C6"/>
</linearGradient>
<linearGradient id="paint4_linear_1344_31" x1="455.4" y1="67.74" x2="420.84" y2="72.26" gradientUnits="userSpaceOnUse">
<stop stop-color="#00B1EB"/>
<stop offset="1" stop-color="#5A328A"/>
</linearGradient>
<linearGradient id="paint5_linear_1344_31" x1="285.53" y1="162.9" x2="280.8" y2="127.7" gradientUnits="userSpaceOnUse">
<stop stop-color="#5A328A"/>
<stop offset="1" stop-color="#009CE1"/>
</linearGradient>
<linearGradient id="paint6_linear_1344_31" x1="379.4" y1="151.96" x2="374.5" y2="115.51" gradientUnits="userSpaceOnUse">
<stop stop-color="#5A328A"/>
<stop offset="1" stop-color="#009CE1"/>
</linearGradient>
<linearGradient id="paint7_linear_1344_31" x1="424.16" y1="144.96" x2="419.58" y2="110.88" gradientUnits="userSpaceOnUse">
<stop stop-color="#5A328A"/>
<stop offset="1" stop-color="#009CE1"/>
</linearGradient>
<linearGradient id="paint8_linear_1344_31" x1="300.8" y1="160.8" x2="296.12" y2="125.99" gradientUnits="userSpaceOnUse">
<stop stop-color="#5A328A"/>
<stop offset="1" stop-color="#009CE1"/>
</linearGradient>
<linearGradient id="paint9_linear_1344_31" x1="310.94" y1="160.86" x2="306.08" y2="124.66" gradientUnits="userSpaceOnUse">
<stop stop-color="#5A328A"/>
<stop offset="1" stop-color="#009CE1"/>
</linearGradient>
<linearGradient id="paint10_linear_1344_31" x1="315.88" y1="160.42" x2="310.98" y2="123.96" gradientUnits="userSpaceOnUse">
<stop stop-color="#5A328A"/>
<stop offset="1" stop-color="#009CE1"/>
</linearGradient>
<linearGradient id="paint11_linear_1344_31" x1="326.04" y1="156.25" x2="321.68" y2="123.82" gradientUnits="userSpaceOnUse">
<stop stop-color="#5A328A"/>
<stop offset="1" stop-color="#009CE1"/>
</linearGradient>
<linearGradient id="paint12_linear_1344_31" x1="336.75" y1="157.46" x2="331.88" y2="121.26" gradientUnits="userSpaceOnUse">
<stop stop-color="#5A328A"/>
<stop offset="1" stop-color="#009CE1"/>
</linearGradient>
<linearGradient id="paint13_linear_1344_31" x1="345.7" y1="155.72" x2="341.02" y2="120.91" gradientUnits="userSpaceOnUse">
<stop stop-color="#5A328A"/>
<stop offset="1" stop-color="#009CE1"/>
</linearGradient>
<linearGradient id="paint14_linear_1344_31" x1="360.88" y1="153.16" x2="356.33" y2="119.27" gradientUnits="userSpaceOnUse">
<stop stop-color="#5A328A"/>
<stop offset="1" stop-color="#009CE1"/>
</linearGradient>
<linearGradient id="paint15_linear_1344_31" x1="390.62" y1="150.5" x2="385.71" y2="114.01" gradientUnits="userSpaceOnUse">
<stop stop-color="#5A328A"/>
<stop offset="1" stop-color="#009CE1"/>
</linearGradient>
<linearGradient id="paint16_linear_1344_31" x1="405.7" y1="147" x2="401.28" y2="114.1" gradientUnits="userSpaceOnUse">
<stop stop-color="#5A328A"/>
<stop offset="1" stop-color="#009CE1"/>
</linearGradient>
<linearGradient id="paint17_linear_1344_31" x1="435.97" y1="143.66" x2="431.29" y2="108.85" gradientUnits="userSpaceOnUse">
<stop stop-color="#5A328A"/>
<stop offset="1" stop-color="#009CE1"/>
</linearGradient>
<linearGradient id="paint18_linear_1344_31" x1="447.87" y1="142.87" x2="442.97" y2="106.42" gradientUnits="userSpaceOnUse">
<stop stop-color="#5A328A"/>
<stop offset="1" stop-color="#009CE1"/>
</linearGradient>
<linearGradient id="paint19_linear_1344_31" x1="459.58" y1="140.67" x2="454.9" y2="105.86" gradientUnits="userSpaceOnUse">
<stop stop-color="#5A328A"/>
<stop offset="1" stop-color="#009CE1"/>
</linearGradient>
<linearGradient id="paint20_linear_1344_31" x1="471.05" y1="139.16" x2="466.62" y2="106.19" gradientUnits="userSpaceOnUse">
<stop stop-color="#5A328A"/>
<stop offset="1" stop-color="#009CE1"/>
</linearGradient>
<linearGradient id="paint21_linear_1344_31" x1="481.89" y1="137.88" x2="477.47" y2="104.99" gradientUnits="userSpaceOnUse">
<stop stop-color="#5A328A"/>
<stop offset="1" stop-color="#009CE1"/>
</linearGradient>
</defs>
</svg>
